# xmcd
#
# Track frame offsets:
#	150
#	16392
#	33892
#	55492
#	71571
#	83736
#	102187
#	117854
#	134524
#	154028
#	169733
#	184044
#	200606
#	216884
#
# Disc length: 3103 seconds
#
# Revision: 0
# Processed by: cddbd v1.5.2PL0 Copyright (c) Steve Scherf et al.
# Submitted via: audiograbber 1.83.01
#
DISCID=bf0c1d0e
DTITLE=01 - Mr Music Country 2015-10
DYEAR=1900
DGENRE=Country
TTITLE0=Chris Young - Lonely eyes
TTITLE1=Martina McBride - Ride
TTITLE2=Diamond Rio - Saw mill road
TTITLE3=Patty Loveless - Lovin' all night
TTITLE4=Rodney Crowell - My past is present
TTITLE5=Carrie Underwood - See you again
TTITLE6=Ty Herndon - It must be love
TTITLE7=Mary Chapin Carpenter - I take my chances
TTITLE8=Keith Anderson - Everytime I hear your name
TTITLE9=Lorrie Morgan - Watch me
TTITLE10=Jerrod Niemann - Real women drink beer
TTITLE11=Bobby Cryner - He feels guilty
TTITLE12=Andy Griggs - Freedom
TTITLE13=Casey James - Drive
EXTD=
EXTT0=
EXTT1=
EXTT2=
EXTT3=
EXTT4=
EXTT5=
EXTT6=
EXTT7=
EXTT8=
EXTT9=
EXTT10=
EXTT11=
EXTT12=
EXTT13=
PLAYORDER=
